<?xml version="1.0" encoding="UTF-8" standalone="no"?>
<!DOCTYPE svg PUBLIC "-//W3C//DTD SVG 1.1//EN" "http://www.w3.org/Graphics/SVG/1.1/DTD/svg11.dtd">
<svg width="100%" height="100%" viewBox="0 0 400 600" version="1.1" xmlns="http://www.w3.org/2000/svg" xmlns:xlink="http://www.w3.org/1999/xlink" xml:space="preserve" xmlns:serif="http://www.serif.com/" style="fill-rule:evenodd;clip-rule:evenodd;stroke-linecap:round;stroke-linejoin:round;stroke-miterlimit:1.5;">
    <g transform="matrix(0.992647,0,0,0.727273,-227.831,85.9574)">
        <rect x="295" y="216" width="272" height="55" style="fill:white;stroke:black;stroke-width:1.15px;"/>
    </g>
    <g transform="matrix(0.992647,0,0,0.727273,-227.831,-28.4762)">
        <rect x="295" y="216" width="272" height="55" style="fill:white;stroke:black;stroke-width:1.15px;"/>
    </g>
    <g transform="matrix(0.992647,0,0,0.727273,-227.831,-89.2233)">
        <rect x="295" y="216" width="272" height="55" style="fill:white;stroke:black;stroke-width:1.15px;"/>
    </g>
    <g transform="matrix(0.992647,0,0,0.727273,-227.831,-149.97)">
        <path d="M567,229.75C567,222.161 562.486,216 556.926,216L305.074,216C299.514,216 295,222.161 295,229.75L295,257.25C295,264.839 299.514,271 305.074,271L556.926,271C562.486,271 567,264.839 567,257.25L567,229.75Z" style="fill:white;stroke:black;stroke-width:1.15px;"/>
    </g>
    <g transform="matrix(0.992647,0,0,0.727273,-227.831,272.831)">
        <path d="M567,243.5L546.852,216L315.148,216L295,243.5L315.148,271L546.852,271L567,243.5Z" style="fill:white;stroke:black;stroke-width:1.15px;"/>
    </g>
    <g transform="matrix(0.992647,0,0,0.727273,-227.831,335.272)">
        <path d="M567,243.5L546.852,216L315.148,216L295,243.5L315.148,271L546.852,271L567,243.5Z" style="fill:white;stroke:black;stroke-width:1.15px;"/>
    </g>
    <g transform="matrix(0.992647,0,0,0.727273,-227.831,395.789)">
        <path d="M567,229.75C567,222.161 562.486,216 556.926,216L305.074,216C299.514,216 295,222.161 295,229.75L295,257.25C295,264.839 299.514,271 305.074,271L556.926,271C562.486,271 567,264.839 567,257.25L567,229.75Z" style="fill:white;stroke:black;stroke-width:1.15px;"/>
    </g>
    <g transform="matrix(0.992647,0,0,0.727273,-227.831,148.174)">
        <rect x="295" y="216" width="272" height="55" style="fill:white;stroke:black;stroke-width:1.15px;"/>
    </g>
    <g transform="matrix(0.992647,0,0,0.727273,-227.831,210.391)">
        <rect x="295" y="216" width="272" height="55" style="fill:white;stroke:black;stroke-width:1.15px;"/>
    </g>
    <g transform="matrix(1,0,0,1,-115.046,-37.8687)">
        <text x="300px" y="70px" style="font-family:'ArialMT', 'Arial', sans-serif;font-size:14px;">Start</text>
    </g>
    <g transform="matrix(1,0,0,1,-186.08,-61.1216)">
        <text x="301.38px" y="152px" style="font-family:'ArialMT', 'Arial', sans-serif;font-size:14px;">Create the initial population</text>
    </g>
    <g transform="matrix(1,0,0,1,-195.847,-85.3711)">
        <text x="288px" y="239px" style="font-family:'ArialMT', 'Arial', sans-serif;font-size:14px;">Evaluate ﬁtness for each individual</text>
    </g>
    <g transform="matrix(1,0,0,1,-230.759,-50.9409)">
        <text x="383px" y="318px" style="font-family:'ArialMT', 'Arial', sans-serif;font-size:14px;">Apply Selection</text>
    </g>
    <g transform="matrix(1,0,0,1,-209.375,-93.7173)">
        <text x="333.007px" y="423px" style="font-family:'ArialMT', 'Arial', sans-serif;font-size:14px;">Apply Genetic Operators</text>
    </g>
    <g transform="matrix(1,0,0,1,-205.28,-31.6714)">
        <text x="333.007px" y="423px" style="font-family:'ArialMT', 'Arial', sans-serif;font-size:14px;">Add to New Generation</text>
    </g>
    <g transform="matrix(1,0,0,1,-75.6193,-30.3794)">
        <text x="189.059px" y="483.925px" style="font-family:'ArialMT', 'Arial', sans-serif;font-size:14px;">New Generation Complete?</text>
    </g>
    <g transform="matrix(1,0,0,1,-81.1144,-26.2448)">
        <text x="201.927px" y="542.007px" style="font-family:'ArialMT', 'Arial', sans-serif;font-size:14px;">Ending Criteria Satisﬁed?</text>
    </g>
    <g transform="matrix(1,0,0,1,-65.3149,-6.86966)">
        <text x="252.812px" y="584.678px" style="font-family:'ArialMT', 'Arial', sans-serif;font-size:14px;">End</text>
    </g>
    <g transform="matrix(1,0,0,1,-450,-179.168)">
        <circle cx="650" cy="385" r="15" style="fill:white;stroke:black;stroke-width:1px;"/>
    </g>
    <g transform="matrix(1,0,0,1,-228,-27.0439)">
        <g transform="matrix(1,-0,-0,1,228,27.0439)">
            <path d="M204.5,58.868L200,67.868L195.5,58.868C197.75,61.118 202.25,61.118 204.5,58.868Z"/>
            <path d="M200,47.351L200,60.668" style="fill:none;stroke:black;stroke-width:1px;"/>
        </g>
    </g>
    <g transform="matrix(1,0,0,1,-228,33.4727)">
        <g transform="matrix(1,-0,-0,1,228,-33.4727)">
            <path d="M204.5,119.384L200,128.384L195.5,119.384C197.75,121.634 202.25,121.634 204.5,119.384Z"/>
            <path d="M200,107.868L200,121.184" style="fill:none;stroke:black;stroke-width:1px;"/>
        </g>
    </g>
    <g transform="matrix(1,0,0,1,-228,95.0698)">
        <g transform="matrix(1,-0,-0,1,228,-95.0698)">
            <path d="M204.5,180.981L200,189.981L195.5,180.981C197.75,183.231 202.25,183.231 204.5,180.981Z"/>
            <path d="M200,169.465L200,182.781" style="fill:none;stroke:black;stroke-width:1px;"/>
        </g>
    </g>
    <g transform="matrix(1,0,0,1,-228,148.137)">
        <g transform="matrix(1,-0,-0,1,228,-148.137)">
            <path d="M204.5,234.048L200,243.048L195.5,234.048C197.75,236.298 202.25,236.298 204.5,234.048Z"/>
            <path d="M200,222.532L200,235.848" style="fill:none;stroke:black;stroke-width:1px;"/>
        </g>
    </g>
    <g transform="matrix(1,0,0,1,-228,209.429)">
        <g transform="matrix(1,-0,-0,1,228,-209.429)">
            <path d="M204.5,295.34L200,304.34L195.5,295.34C197.75,297.59 202.25,297.59 204.5,295.34Z"/>
            <path d="M200,283.824L200,297.14" style="fill:none;stroke:black;stroke-width:1px;"/>
        </g>
    </g>
    <g transform="matrix(1,0,0,1,-228,271.795)">
        <g transform="matrix(1,-0,-0,1,228,-271.795)">
            <path d="M204.5,357.707L200,366.707L195.5,357.707C197.75,359.957 202.25,359.957 204.5,357.707Z"/>
            <path d="M200,346.19L200,359.507" style="fill:none;stroke:black;stroke-width:1px;"/>
        </g>
    </g>
    <g transform="matrix(1,0,0,1,-228,333.862)">
        <g transform="matrix(1,-0,-0,1,228,-333.862)">
            <path d="M204.5,419.774L200,428.774L195.5,419.774C197.75,422.024 202.25,422.024 204.5,419.774Z"/>
            <path d="M200,408.257L200,421.574" style="fill:none;stroke:black;stroke-width:1px;"/>
        </g>
    </g>
    <g transform="matrix(1,0,0,1,-228,396.451)">
        <g transform="matrix(1,-0,-0,1,228,-396.451)">
            <path d="M204.5,482.363L200,491.363L195.5,482.363C197.75,484.613 202.25,484.613 204.5,482.363Z"/>
            <path d="M200,470.846L200,484.163" style="fill:none;stroke:black;stroke-width:1px;"/>
        </g>
    </g>
    <g transform="matrix(1,0,0,1,-228,458.668)">
        <g transform="matrix(1,-0,-0,1,228,-458.668)">
            <path d="M204.5,544.58L200,553.58L195.5,544.58C197.75,546.83 202.25,546.83 204.5,544.58Z"/>
            <path d="M200,533.063L200,546.38" style="fill:none;stroke:black;stroke-width:1px;"/>
        </g>
    </g>
    <g transform="matrix(1,0,0,1,-228,-27.0439)">
        <g transform="matrix(1,-0,-0,1,228,27.0439)">
            <path d="M56,144.115L65,148.615L56,153.115C58.25,150.865 58.25,146.365 56,144.115Z"/>
            <path d="M65,512.363L20,512.363L20,148.615L57.8,148.615" style="fill:none;stroke:black;stroke-width:1px;"/>
        </g>
    </g>
    <g transform="matrix(1,0,0,1,-228,-27.0439)">
        <g transform="matrix(1,-0,-0,1,228,27.0439)">
            <path d="M224,210.332L215,205.832L224,201.332C221.75,203.582 221.75,208.082 224,210.332Z"/>
            <path d="M335,449.072L380,448.922L380,205.832L222.2,205.832" style="fill:none;stroke:black;stroke-width:1px;"/>
        </g>
    </g>
    <g transform="matrix(1,0,0,1,-224,-27.2148)">
        <text x="572px" y="470.397px" style="font-family:'ArialMT', 'Arial', sans-serif;font-size:14px;">NO</text>
    </g>
    <g transform="matrix(1,0,0,1,-223.057,-26.0439)">
        <text x="439.396px" y="511.867px" style="font-family:'ArialMT', 'Arial', sans-serif;font-size:14px;">YES</text>
    </g>
    <g transform="matrix(1,0,0,1,-216.219,-27.2148)">
        <text x="248px" y="532.614px" style="font-family:'ArialMT', 'Arial', sans-serif;font-size:14px;">NO</text>
    </g>
    <g transform="matrix(1,0,0,1,-223.11,-22.0439)">
        <text x="439.449px" y="569.665px" style="font-family:'ArialMT', 'Arial', sans-serif;font-size:14px;">YES</text>
    </g>
</svg>
